<svg xmlns="http://www.w3.org/2000/svg" xmlns:xlink="http://www.w3.org/1999/xlink" width="500" zoomAndPan="magnify" viewBox="0 0 375 374.999991" height="500" preserveAspectRatio="xMidYMid meet" version="1.0"><defs><clipPath id="2b214371d3"><path d="M 148 136 L 215.320312 136 L 215.320312 233.425781 L 148 233.425781 Z M 148 136 " clip-rule="nonzero"/></clipPath></defs><rect x="-37.5" width="450" fill="#ffffff" y="-37.499999" height="449.999989" fill-opacity="1"/><rect x="-37.5" width="450" fill="#ffffff" y="-37.499999" height="449.999989" fill-opacity="1"/><g clip-path="url(#2b214371d3)"><path fill="#000000" d="M 197.109375 233.425781 C 196.226562 233.425781 195.34375 233.398438 194.464844 233.351562 C 193.582031 233.300781 192.703125 233.230469 191.824219 233.132812 C 190.945312 233.035156 190.070312 232.914062 189.199219 232.769531 C 188.328125 232.625 187.460938 232.457031 186.601562 232.265625 C 185.738281 232.074219 184.882812 231.859375 184.03125 231.621094 C 183.183594 231.382812 182.339844 231.121094 181.503906 230.835938 C 180.667969 230.554688 179.839844 230.246094 179.019531 229.917969 C 178.203125 229.589844 177.390625 229.238281 176.59375 228.863281 C 175.792969 228.488281 175.003906 228.09375 174.226562 227.679688 C 173.445312 227.261719 172.679688 226.824219 171.925781 226.367188 C 171.171875 225.90625 170.429688 225.429688 169.703125 224.929688 C 168.976562 224.433594 168.261719 223.914062 167.5625 223.375 C 166.859375 222.839844 166.175781 222.28125 165.507812 221.707031 C 164.839844 221.132812 164.183594 220.539062 163.546875 219.929688 C 162.910156 219.320312 162.292969 218.691406 161.6875 218.046875 C 161.085938 217.402344 160.503906 216.742188 159.9375 216.066406 C 159.371094 215.390625 158.820312 214.699219 158.292969 213.992188 C 157.765625 213.289062 157.253906 212.566406 156.765625 211.835938 C 156.277344 211.101562 155.808594 210.355469 155.359375 209.59375 C 154.910156 208.835938 154.484375 208.066406 154.078125 207.28125 C 153.671875 206.5 153.289062 205.707031 152.925781 204.902344 C 152.5625 204.101562 152.222656 203.289062 151.902344 202.464844 C 151.585938 201.644531 151.289062 200.8125 151.015625 199.976562 C 150.746094 199.136719 150.496094 198.292969 150.269531 197.441406 C 150.042969 196.589844 149.839844 195.730469 149.660156 194.867188 C 149.480469 194.003906 149.324219 193.140625 149.191406 192.265625 C 149.058594 191.394531 148.953125 190.523438 148.867188 189.644531 C 148.78125 188.765625 148.722656 187.886719 148.6875 187.007812 C 148.648438 186.128906 148.636719 185.246094 148.648438 184.367188 C 148.660156 183.484375 148.699219 182.605469 148.757812 181.726562 C 148.820312 180.847656 148.902344 179.96875 149.011719 179.09375 C 149.117188 178.21875 149.25 177.347656 149.40625 176.480469 C 149.5625 175.613281 149.742188 174.75 149.945312 173.894531 C 150.148438 173.035156 150.375 172.183594 150.625 171.339844 C 150.875 170.496094 151.148438 169.65625 151.441406 168.824219 C 151.738281 167.996094 152.054688 167.175781 152.398438 166.359375 C 152.738281 165.546875 153.097656 164.746094 153.484375 163.953125 C 153.867188 163.15625 154.273438 162.375 154.703125 161.605469 C 155.128906 160.832031 155.578125 160.074219 156.046875 159.328125 C 156.515625 158.582031 157.003906 157.847656 157.511719 157.128906 C 158.023438 156.40625 158.550781 155.703125 159.097656 155.011719 C 159.644531 154.320312 160.210938 153.644531 160.796875 152.980469 C 161.378906 152.320312 161.984375 151.679688 162.601562 151.050781 C 163.222656 150.421875 163.859375 149.8125 164.511719 149.21875 C 165.164062 148.625 165.835938 148.050781 166.519531 147.496094 C 167.203125 146.9375 167.902344 146.402344 168.617188 145.882812 C 169.332031 145.363281 170.058594 144.867188 170.800781 144.386719 C 171.542969 143.910156 172.296875 143.449219 173.0625 143.011719 C 173.828125 142.574219 174.609375 142.160156 175.398438 141.765625 C 176.1875 141.367188 176.984375 140.996094 177.796875 140.644531 C 178.605469 140.292969 179.425781 139.960938 180.253906 139.65625 C 181.078125 139.347656 181.914062 139.066406 182.757812 138.804688 C 183.601562 138.542969 184.453125 138.304688 185.308594 138.089844 C 186.164062 137.875 187.027344 137.679688 187.894531 137.511719 C 188.761719 137.34375 189.632812 137.199219 190.503906 137.078125 C 191.378906 136.960938 192.257812 136.863281 193.136719 136.789062 C 194.019531 136.71875 194.898438 136.667969 195.78125 136.644531 C 196.664062 136.617188 197.546875 136.617188 198.429688 136.640625 C 199.3125 136.664062 200.195312 136.710938 201.074219 136.78125 C 201.957031 136.855469 202.832031 136.949219 203.707031 137.070312 C 204.582031 137.1875 205.453125 137.332031 206.320312 137.496094 C 207.1875 137.664062 208.050781 137.855469 208.90625 138.066406 C 209.761719 138.28125 210.613281 138.519531 211.457031 138.777344 C 212.300781 139.039062 213.136719 139.320312 213.964844 139.625 C 214.332031 139.761719 214.625 139.988281 214.84375 140.304688 C 215.066406 140.621094 215.179688 140.976562 215.179688 141.363281 C 215.179688 141.75 215.066406 142.101562 214.84375 142.421875 C 214.625 142.738281 214.332031 142.964844 213.964844 143.097656 C 211.832031 143.886719 209.773438 144.832031 207.785156 145.933594 C 205.796875 147.035156 203.902344 148.28125 202.105469 149.671875 C 200.304688 151.058594 198.625 152.578125 197.058594 154.222656 C 195.488281 155.867188 194.058594 157.621094 192.757812 159.484375 C 191.457031 161.347656 190.308594 163.296875 189.308594 165.335938 C 188.304688 167.375 187.464844 169.476562 186.785156 171.640625 C 186.101562 173.808594 185.589844 176.011719 185.246094 178.253906 C 184.902344 180.5 184.730469 182.753906 184.730469 185.023438 C 184.730469 187.292969 184.902344 189.550781 185.246094 191.792969 C 185.589844 194.039062 186.101562 196.242188 186.785156 198.40625 C 187.464844 200.574219 188.304688 202.675781 189.308594 204.710938 C 190.308594 206.75 191.457031 208.699219 192.757812 210.5625 C 194.058594 212.425781 195.488281 214.179688 197.058594 215.824219 C 198.625 217.472656 200.304688 218.988281 202.105469 220.378906 C 203.902344 221.765625 205.796875 223.011719 207.785156 224.113281 C 209.773438 225.214844 211.832031 226.160156 213.964844 226.949219 C 214.332031 227.085938 214.625 227.3125 214.84375 227.628906 C 215.066406 227.945312 215.179688 228.300781 215.179688 228.6875 C 215.179688 229.074219 215.066406 229.425781 214.84375 229.746094 C 214.625 230.0625 214.332031 230.289062 213.964844 230.421875 C 208.527344 232.433594 202.910156 233.433594 197.109375 233.425781 Z M 197.109375 140.324219 C 195.53125 140.324219 193.953125 140.410156 192.382812 140.578125 C 190.808594 140.746094 189.25 140.996094 187.707031 141.332031 C 186.160156 141.664062 184.636719 142.078125 183.136719 142.570312 C 181.636719 143.066406 180.164062 143.636719 178.722656 144.285156 C 177.28125 144.933594 175.882812 145.660156 174.515625 146.457031 C 173.152344 147.253906 171.835938 148.121094 170.5625 149.058594 C 169.292969 149.996094 168.074219 150.996094 166.90625 152.0625 C 165.742188 153.125 164.636719 154.25 163.589844 155.433594 C 162.542969 156.613281 161.5625 157.847656 160.644531 159.132812 C 159.730469 160.421875 158.886719 161.75 158.109375 163.125 C 157.335938 164.5 156.636719 165.914062 156.011719 167.363281 C 155.386719 168.8125 154.839844 170.289062 154.375 171.796875 C 153.90625 173.304688 153.519531 174.832031 153.214844 176.378906 C 152.90625 177.925781 152.683594 179.484375 152.542969 181.054688 C 152.402344 182.628906 152.347656 184.203125 152.375 185.777344 C 152.402344 187.355469 152.511719 188.929688 152.703125 190.492188 C 152.898438 192.058594 153.171875 193.609375 153.53125 195.148438 C 153.890625 196.683594 154.328125 198.195312 154.847656 199.6875 C 155.363281 201.175781 155.960938 202.636719 156.632812 204.0625 C 157.308594 205.488281 158.054688 206.878906 158.875 208.226562 C 159.695312 209.574219 160.585938 210.875 161.542969 212.128906 C 162.5 213.382812 163.523438 214.585938 164.609375 215.730469 C 165.695312 216.878906 166.839844 217.964844 168.039062 218.988281 C 169.242188 220.015625 170.492188 220.972656 171.796875 221.867188 C 173.097656 222.761719 174.445312 223.582031 175.835938 224.332031 C 177.226562 225.085938 178.652344 225.761719 180.113281 226.359375 C 181.574219 226.960938 183.0625 227.484375 184.582031 227.925781 C 186.097656 228.367188 187.636719 228.730469 189.191406 229.011719 C 190.746094 229.292969 192.3125 229.492188 193.886719 229.605469 C 195.464844 229.722656 197.042969 229.753906 198.625 229.703125 C 200.203125 229.648438 201.777344 229.515625 203.339844 229.296875 C 204.90625 229.082031 206.457031 228.78125 207.992188 228.398438 C 205.976562 227.402344 204.039062 226.273438 202.183594 225.007812 C 200.328125 223.742188 198.566406 222.355469 196.902344 220.84375 C 195.238281 219.335938 193.6875 217.71875 192.25 215.992188 C 190.8125 214.269531 189.5 212.453125 188.3125 210.546875 C 187.128906 208.640625 186.082031 206.660156 185.171875 204.609375 C 184.261719 202.554688 183.5 200.453125 182.882812 198.292969 C 182.265625 196.136719 181.800781 193.945312 181.492188 191.722656 C 181.179688 189.5 181.023438 187.269531 181.023438 185.023438 C 181.023438 182.78125 181.179688 180.546875 181.492188 178.324219 C 181.800781 176.101562 182.265625 173.914062 182.882812 171.753906 C 183.5 169.597656 184.261719 167.492188 185.171875 165.441406 C 186.082031 163.386719 187.128906 161.410156 188.3125 159.503906 C 189.5 157.59375 190.8125 155.78125 192.25 154.054688 C 193.6875 152.332031 195.238281 150.714844 196.902344 149.203125 C 198.566406 147.695312 200.328125 146.308594 202.183594 145.042969 C 204.039062 143.777344 205.976562 142.644531 207.992188 141.648438 C 204.417969 140.761719 200.792969 140.320312 197.109375 140.324219 Z M 197.109375 140.324219 " fill-opacity="1" fill-rule="nonzero"/></g></svg>